<svg height="512pt" viewBox="-10 0 512 512" width="512pt" xmlns="http://www.w3.org/2000/svg"><path d="m333.996094 125.429688v70.648437c0 48.769531-39.539063 88.308594-88.308594 88.308594-48.773438 0-88.308594-39.539063-88.308594-88.308594v-70.648437zm0 0" fill="#fccb9d"/><path d="m199.109375 264.128906v35.484375c0 14.484375-10.167969 26.984375-24.351563 29.929688l-117.714843 24.453125c-27.398438 5.691406-47.042969 29.832031-47.042969 57.816406v90.1875h472v-90.152344c0-28-19.664062-52.152344-47.082031-57.828125l-118.277344-24.488281c-14.195313-2.941406-24.371094-15.441406-24.371094-29.9375v-35.640625zm0 0" fill="#ff5d5d"/><path d="m199.109375 273.515625v26.097656c0 14.484375-10.167969 26.984375-24.351563 29.929688l-117.714843 24.453125c-27.398438 5.691406-47.042969 29.832031-47.042969 57.816406v90.1875h472v-90.152344c0-28-19.664062-52.152344-47.082031-57.828125l-118.277344-24.488281c-14.195313-2.941406-24.371094-15.441406-24.371094-29.9375v-26.253906" fill="#ff5d5d"/><path d="m185.101562 327.550781c32.773438 32.769531 85.910157 32.769531 118.683594 0 0 0 1.125-.6875 3.070313-1.894531-8.859375-5.433594-14.589844-15.1875-14.589844-26.0625v-26.253906l-93.160156.175781v26.097656c0 11.234375-6.117188 21.269531-15.480469 26.585938zm0 0" fill="#fccb9d"/><path d="m301.015625 263.953125-12.140625-74.289063h-85.8125l-12.078125 74.289063-1.242187.449219c15.230468 12.484375 34.710937 19.980468 55.945312 19.980468 21.113281 0 40.488281-7.410156 55.683594-19.769531-.230469-.429687-.355469-.660156-.355469-.660156zm0 0" fill="#4dbaf6"/><path d="m369 10h-136.308594c-41.59375 0-75.3125 33.71875-75.3125 75.308594v40.121094h139.40625c39.882813 0 72.214844-32.332032 72.214844-72.214844zm0 0" fill="#ffc66c"/><path d="m370.859375 342.828125c0 2.632813 1.0625 5.210937 2.929687 7.070313 1.859376 1.863281 4.429688 2.929687 7.070313 2.929687 2.628906 0 5.210937-1.066406 7.070313-2.929687 1.859374-1.859376 2.929687-4.4375 2.929687-7.070313 0-2.636719-1.070313-5.207031-2.929687-7.078125-1.859376-1.859375-4.441407-2.929688-7.070313-2.929688-2.640625 0-5.210937 1.070313-7.070313 2.929688-1.867187 1.859375-2.929687 4.441406-2.929687 7.078125zm0 0"/><path d="m436.945312 344.226562-14.769531-3.058593c-5.410156-1.117188-10.699219 2.359375-11.820312 7.765625-1.121094 5.410156 2.355469 10.699218 7.765625 11.820312l14.769531 3.058594c22.664063 4.691406 39.109375 24.890625 39.109375 48.035156v80.152344h-452v-80.1875c0-23.125 16.433594-43.324219 39.078125-48.027344l117.710937-24.453125c1.648438-.339843 3.253907-.789062 4.816407-1.320312 17.273437 15.585937 39.398437 24.117187 62.835937 24.117187 23.769532 0 46.1875-8.773437 63.5625-24.78125 2.117188.835938 4.324219 1.5 6.609375 1.972656l25.164063 5.210938c.683594.144531 1.363281.210938 2.035156.210938 4.644531 0 8.804688-3.25 9.785156-7.976563 1.117188-5.40625-2.359375-10.699219-7.765625-11.820313l-25.164062-5.210937c-9.503907-1.964844-16.398438-10.4375-16.398438-20.140625v-23.167969c25.222657-17.816406 41.726563-47.191406 41.726563-80.351562v-75.613281c21.148437-14.890626 35.003906-39.472657 35.003906-67.246094v-43.214844c0-5.523438-4.476562-10-10-10h-136.308594c-47.042968 0-85.3125 38.269531-85.3125 85.308594v110.769531c0 33.15625 16.507813 62.53125 41.730469 80.347656v23.183594c0 9.699219-6.894531 18.167969-16.386719 20.140625l-117.710937 24.453125c-31.875 6.621094-55.011719 35.054687-55.011719 67.609375v90.1875c0 5.523438 4.476562 10 10 10h472c5.523438 0 10-4.476562 10-10v-90.152344c0-32.578125-23.152344-61.015625-55.054688-67.621094zm-192.503906-2.097656c-16.71875 0-32.578125-5.53125-45.527344-15.699218 6.375-7.226563 10.195313-16.683594 10.195313-26.816407v-12.289062c11.3125 4.550781 23.65625 7.0625 36.578125 7.0625s25.265625-2.511719 36.582031-7.0625v12.273437c0 9.597656 3.421875 18.585938 9.199219 25.648438-13.210938 10.929687-29.660156 16.882812-47.027344 16.882812zm-42.808594-81.351562 9.933594-61.109375h68.8125l9.921875 60.714843c-12.667969 8.816407-28.042969 14.003907-44.613281 14.003907-16.324219 0-31.496094-5.03125-44.054688-13.609375zm122.363282-64.699219c0 17.882813-6.039063 34.371094-16.167969 47.570313l-7.878906-48.207032 24.046875-11.542968zm-156.617188-110.769531c0-36.011719 29.300782-65.308594 65.3125-65.308594h126.308594v33.214844c0 34.304687-27.910156 62.214844-62.214844 62.214844h-129.40625zm0 50.121094h129.40625c9.535156 0 18.6875-1.648438 27.210938-4.648438v30.933594l-37.398438 17.953125h-81.253906l-37.960938-18.253907v-25.984374zm16.671875 108.859374c-10.429687-13.300781-16.671875-30.035156-16.671875-48.210937v-12.472656l24.613282 11.835937zm0 0"/></svg>