<svg xmlns="http://www.w3.org/2000/svg" height="512pt" version="1.1" viewBox="0 -32 512 512" width="512pt">
<g id="surface1">
<path d="M 199.886719 247.984375 L 199.886719 288.0625 C 199.886719 296.917969 192.710938 304.097656 183.855469 304.097656 L 151.789062 304.097656 L 151.789062 247.984375 Z M 199.886719 247.984375 " style=" stroke:none;fill-rule:nonzero;fill:rgb(36.470588%,32.54902%,37.647059%);fill-opacity:1;" />
<path d="M 151.789062 247.984375 L 199.886719 247.984375 L 199.886719 280.046875 L 151.789062 280.046875 Z M 151.789062 247.984375 " style=" stroke:none;fill-rule:nonzero;fill:rgb(29.411765%,24.705882%,30.588235%);fill-opacity:1;" />
<path d="M 159.804688 256 L 87.660156 256 L 117.414062 427.085938 C 118.75 434.765625 125.414062 440.371094 133.210938 440.371094 L 191.871094 440.371094 Z M 159.804688 256 " style=" stroke:none;fill-rule:nonzero;fill:rgb(86.27451%,27.45098%,33.333333%);fill-opacity:1;" />
<path d="M 183.855469 127.742188 L 71.628906 127.742188 C 36.210938 127.742188 7.5 156.453125 7.5 191.871094 C 7.5 227.285156 36.210938 256 71.628906 256 L 183.855469 256 C 363.828125 256 440.371094 360.210938 440.371094 360.210938 L 440.371094 23.53125 C 440.371094 23.53125 363.828125 127.742188 183.855469 127.742188 Z M 183.855469 127.742188 " style=" stroke:none;fill-rule:nonzero;fill:rgb(92.941176%,92.156863%,92.941176%);fill-opacity:1;" />
<path d="M 16.148438 223.933594 C 27.242188 243.085938 47.90625 256 71.628906 256 L 183.855469 256 C 363.828125 256 440.371094 360.210938 440.371094 360.210938 L 440.371094 288.066406 C 440.371094 288.066406 363.828125 223.9375 183.855469 223.9375 L 16.148438 223.9375 Z M 16.148438 223.933594 " style=" stroke:none;fill-rule:nonzero;fill:rgb(85.882353%,85.098039%,86.27451%);fill-opacity:1;" />
<path d="M 71.628906 256 L 183.855469 256 L 183.855469 127.742188 L 71.628906 127.742188 C 36.210938 127.742188 7.5 156.453125 7.5 191.871094 C 7.5 227.289062 36.210938 256 71.628906 256 Z M 71.628906 256 " style=" stroke:none;fill-rule:nonzero;fill:rgb(90.196078%,39.215686%,43.137255%);fill-opacity:1;" />
<path d="M 95.675781 223.933594 C 60.261719 223.933594 31.546875 195.222656 31.546875 159.804688 C 31.546875 152.628906 32.777344 145.75 34.953125 139.304688 C 18.371094 150.898438 7.5 170.101562 7.5 191.871094 C 7.5 227.285156 36.210938 256 71.628906 256 L 183.855469 256 L 183.855469 223.933594 Z M 95.675781 223.933594 " style=" stroke:none;fill-rule:nonzero;fill:rgb(86.27451%,27.45098%,33.333333%);fill-opacity:1;" />
<path d="M 492.355469 164.785156 L 472.4375 159.804688 L 472.4375 223.933594 L 492.355469 218.953125 C 499.492188 217.171875 504.5 210.757812 504.5 203.402344 L 504.5 180.339844 C 504.5 172.984375 499.492188 166.570312 492.355469 164.785156 Z M 492.355469 164.785156 " style=" stroke:none;fill-rule:nonzero;fill:rgb(90.196078%,39.215686%,43.137255%);fill-opacity:1;" />
<path d="M 456.402344 376.242188 C 447.550781 376.242188 440.371094 369.0625 440.371094 360.210938 L 440.371094 23.53125 C 440.371094 14.679688 447.550781 7.5 456.402344 7.5 C 465.257812 7.5 472.433594 14.679688 472.433594 23.53125 L 472.433594 360.210938 C 472.433594 369.0625 465.257812 376.242188 456.402344 376.242188 Z M 456.402344 376.242188 " style=" stroke:none;fill-rule:nonzero;fill:rgb(85.882353%,85.098039%,86.27451%);fill-opacity:1;" />
<path d="M 456.402344 304.097656 C 447.550781 304.097656 440.371094 296.917969 440.371094 288.0625 L 440.371094 360.210938 C 440.371094 369.0625 447.550781 376.242188 456.402344 376.242188 C 465.257812 376.242188 472.433594 369.0625 472.433594 360.210938 L 472.433594 288.0625 C 472.433594 296.917969 465.257812 304.097656 456.402344 304.097656 Z M 456.402344 304.097656 " style=" stroke:none;fill-rule:nonzero;fill:rgb(78.823529%,77.647059%,79.215686%);fill-opacity:1;" />
<path d="M 148.316406 280.046875 L 163.988281 280.046875 L 159.808594 256 L 87.660156 256 L 117.414062 427.085938 C 118.75 434.765625 125.414062 440.371094 133.210938 440.371094 L 147.605469 440.371094 L 124.625 308.21875 C 122.066406 293.507812 133.386719 280.046875 148.316406 280.046875 Z M 148.316406 280.046875 " style=" stroke:none;fill-rule:nonzero;fill:rgb(74.509804%,25.490196%,31.372549%);fill-opacity:1;" />
<path d="M 494.175781 157.511719 L 479.9375 153.949219 L 479.9375 23.53125 C 479.9375 10.554688 469.378906 0 456.402344 0 C 444.378906 0 434.4375 9.066406 433.046875 20.722656 C 428.242188 26.652344 409.734375 47.933594 375.625 69.28125 C 338.472656 92.527344 275.046875 120.242188 183.855469 120.242188 L 71.628906 120.242188 C 32.132812 120.242188 0 152.375 0 191.871094 C 0 231.367188 32.132812 263.5 71.628906 263.5 L 81.351562 263.5 L 110.027344 428.371094 C 111.992188 439.671875 121.742188 447.871094 133.210938 447.871094 L 207.902344 447.871094 C 212.046875 447.871094 215.402344 444.511719 215.402344 440.371094 C 215.402344 436.230469 212.046875 432.871094 207.902344 432.871094 L 198.179688 432.871094 L 177.089844 311.597656 L 183.855469 311.597656 C 196.832031 311.597656 207.386719 301.039062 207.386719 288.066406 L 207.386719 264.136719 C 285.664062 268.359375 341.183594 293.035156 374.957031 314.046875 C 409.335938 335.429688 428.191406 357.0625 433.046875 363.027344 C 434.445312 374.679688 444.382812 383.742188 456.402344 383.742188 C 469.378906 383.742188 479.9375 373.183594 479.9375 360.210938 L 479.9375 229.789062 L 494.175781 226.230469 C 504.671875 223.605469 512 214.21875 512 203.402344 L 512 180.339844 C 512 169.523438 504.671875 160.132812 494.175781 157.511719 Z M 133.210938 432.871094 C 129.050781 432.871094 125.515625 429.898438 124.804688 425.800781 L 96.578125 263.5 L 153.496094 263.5 L 182.953125 432.871094 Z M 192.386719 288.0625 C 192.386719 292.769531 188.558594 296.597656 183.855469 296.597656 L 174.480469 296.597656 L 168.722656 263.5 C 168.722656 263.5 189.570312 263.527344 192.386719 263.582031 Z M 464.9375 360.210938 C 464.9375 364.914062 461.109375 368.742188 456.402344 368.742188 C 451.699219 368.742188 447.871094 364.914062 447.871094 360.210938 L 447.871094 87.664062 C 447.871094 83.519531 444.515625 80.164062 440.371094 80.164062 C 436.230469 80.164062 432.871094 83.519531 432.871094 87.664062 L 432.871094 340.554688 C 422.625 330.273438 406.40625 316.027344 383.582031 301.746094 C 345.800781 278.101562 282.101562 250.050781 191.355469 248.570312 L 191.355469 239.96875 C 191.355469 235.824219 187.996094 232.46875 183.855469 232.46875 C 179.714844 232.46875 176.355469 235.824219 176.355469 239.96875 L 176.355469 248.5 L 71.628906 248.5 C 55.789062 248.5 41.453125 241.953125 31.167969 231.433594 L 47.582031 231.433594 C 51.722656 231.433594 55.082031 228.078125 55.082031 223.933594 C 55.082031 219.792969 51.722656 216.433594 47.582031 216.433594 L 20.609375 216.433594 C 18.054688 211.152344 16.316406 205.40625 15.511719 199.371094 L 47.582031 199.371094 C 51.722656 199.371094 55.082031 196.011719 55.082031 191.871094 C 55.082031 187.730469 51.722656 184.371094 47.582031 184.371094 L 15.511719 184.371094 C 16.316406 178.335938 18.054688 172.589844 20.609375 167.308594 L 47.582031 167.308594 C 51.722656 167.308594 55.082031 163.949219 55.082031 159.808594 C 55.082031 155.664062 51.722656 152.308594 47.582031 152.308594 L 31.167969 152.308594 C 41.453125 141.789062 55.789062 135.242188 71.628906 135.242188 L 176.355469 135.242188 L 176.355469 207.902344 C 176.355469 212.046875 179.714844 215.402344 183.855469 215.402344 C 187.996094 215.402344 191.355469 212.046875 191.355469 207.902344 L 191.355469 135.171875 C 282.097656 133.695312 345.800781 105.640625 383.582031 81.996094 C 406.402344 67.714844 422.625 53.472656 432.871094 43.191406 L 432.871094 55.59375 C 432.871094 59.738281 436.230469 63.09375 440.371094 63.09375 C 444.511719 63.09375 447.871094 59.738281 447.871094 55.59375 L 447.871094 23.53125 C 447.871094 18.828125 451.699219 15 456.402344 15 C 461.105469 15 464.933594 18.828125 464.933594 23.53125 L 464.933594 360.210938 Z M 497 203.402344 C 497 207.324219 494.34375 210.726562 490.535156 211.679688 L 479.933594 214.328125 L 479.933594 169.410156 L 490.535156 172.0625 C 494.34375 173.011719 497 176.414062 497 180.339844 Z M 497 203.402344 " style=" stroke:none;fill-rule:nonzero;fill:rgb(0%,0%,0%);fill-opacity:1;" />
</g>
</svg>